PathFileType	4	(X/Y/Z)	C:/Users/opensim2020/Desktop/walking_exp_matlab/subject03_walking04_straight_01.trc	
DataRate	CameraRate	NumFrames	NumMarkers	Units	OrigDataRate	OrigDataStartFrame	OrigNumFrames	
100.00	100.00	7	51	mm	100.00	802	265	
Frame#	Time	LFHD			RFHD			LBHD			RBHD			C7			T10			CLAV			STRN			RBAK			LSHO			LUPA			LELB			LFRM			LWRA			LWRB			LFIN			RSHO			RUPA			RELB			RFRM			RWRA			RWRB			RFIN			LASI			RASI			LPSI			RPSI			LTHI			LKNE			LTIB			LANK			LHEE			LTOE			RTHI			RKNE			RTIB			RANK			RHEE			RTOE			*39			*40			*41			*42			*43			*44			*45			*46			*47			*48			*49			*50			
		X1	Y1	Z1	X2	Y2	Z2	X3	Y3	Z3	X4	Y4	Z4	X5	Y5	Z5	X6	Y6	Z6	X7	Y7	Z7	X8	Y8	Z8	X9	Y9	Z9	X10	Y10	Z10	X11	Y11	Z11	X12	Y12	Z12	X13	Y13	Z13	X14	Y14	Z14	X15	Y15	Z15	X16	Y16	Z16	X17	Y17	Z17	X18	Y18	Z18	X19	Y19	Z19	X20	Y20	Z20	X21	Y21	Z21	X22	Y22	Z22	X23	Y23	Z23	X24	Y24	Z24	X25	Y25	Z25	X26	Y26	Z26	X27	Y27	Z27	X28	Y28	Z28	X29	Y29	Z29	X30	Y30	Z30	X31	Y31	Z31	X32	Y32	Z32	X33	Y33	Z33	X34	Y34	Z34	X35	Y35	Z35	X36	Y36	Z36	X37	Y37	Z37	X38	Y38	Z38	X39	Y39	Z39	X40	Y40	Z40	X41	Y41	Z41	X42	Y42	Z42	X43	Y43	Z43	X44	Y44	Z44	X45	Y45	Z45	X46	Y46	Z46	X47	Y47	Z47	X48	Y48	Z48	X49	Y49	Z49	X50	Y50	Z50	X51	Y51	Z51	

67	0.660	-1250.26807	-767.08087	1592.35229	-1119.15808	-785.62189	1610.03223	-1257.84082	-891.48615	1539.22351	-1127.67139	-905.32147	1556.74951	-1180.93408	-921.81580	1396.75549	-1178.20178	-968.86987	1085.51575	-1173.90369	-803.39276	1314.81665	-1173.10876	-767.19006	1146.86426	-1078.04382	-984.16693	1228.35120	-1333.12939	-845.23700	1350.29260	-1400.51636	-892.21619	1155.85071	-1414.48157	-908.58081	1034.06091	-1419.59644	-903.63104	903.68500	-1394.62024	-898.03314	783.08923	-1439.68152	-929.27643	793.47430	-1434.39478	-923.75092	709.38251	-1017.58252	-849.52405	1345.40930	-931.55493	-815.48499	1133.43591	-913.55847	-772.90320	1030.11328	-911.90479	-713.15338	907.41791	-950.47845	-655.13507	827.93402	-904.58411	-679.17023	813.14795	-915.77405	-633.11804	755.85150	-1282.26758	-797.68622	912.84790	-1045.20239	-822.82068	915.18842	-1253.69092	-964.26776	939.02759	-1104.16846	-976.32080	954.76178	-1326.08765	-790.68768	616.02472	-1272.25903	-729.79163	455.78201	-1274.30798	-714.71454	262.56476	-1236.27405	-655.91931	61.18727	-1198.65881	-687.54303	23.87642	-1207.50415	-504.25235	49.38799	-1009.34576	-939.32428	636.25165	-1038.65515	-972.53516	458.40375	-1038.84277	-1085.20447	298.67422	-1088.20837	-1190.82104	107.80040	-1140.04919	-1241.70349	93.04832	-1107.02698	-1067.23376	28.38301																																				 
68	0.670	-1251.30774	-757.47455	1592.43542	-1120.27417	-776.32642	1610.37195	-1259.00903	-881.67346	1538.75366	-1128.88330	-895.86530	1556.50134	-1182.21045	-911.82159	1396.46301	-1179.16663	-957.70337	1085.12805	-1174.53149	-793.07556	1314.92419	-1173.33984	-756.27905	1147.15149	-1079.84631	-974.18359	1228.04163	-1334.07581	-834.39203	1350.01685	-1400.79309	-881.26910	1155.22021	-1414.21875	-897.79126	1033.37500	-1419.11609	-894.15717	902.92358	-1393.58777	-890.37878	781.95898	-1438.97424	-920.99896	792.93005	-1433.22363	-916.89697	708.67352	-1018.48663	-840.01050	1345.28516	-932.87457	-806.52283	1132.89246	-914.97253	-764.32410	1029.34912	-913.74896	-704.62311	906.60864	-952.36279	-646.50177	827.30328	-906.77832	-670.72754	812.28699	-917.91315	-624.82190	755.09631	-1282.58008	-785.48645	913.28418	-1045.53394	-811.38336	914.52551	-1254.54932	-952.09094	939.07257	-1104.94312	-964.89508	953.98993	-1325.76563	-777.29962	617.39209	-1272.15649	-720.18219	455.62482	-1272.74597	-707.33044	261.91159	-1236.16516	-651.24084	60.67120	-1198.87000	-685.22528	25.80538	-1205.81604	-500.94760	39.51912	-1009.17834	-928.15717	635.62543	-1037.91650	-960.92780	457.56583	-1038.28455	-1077.24707	300.11203	-1087.18433	-1187.52075	112.14173	-1139.19800	-1238.53979	99.05783	-1106.89978	-1066.72534	28.29417																																				 
69	0.680	-1252.27844	-747.86938	1593.02649	-1121.30054	-767.07684	1611.16101	-1260.12195	-871.83813	1538.80212	-1130.03735	-886.34741	1556.76990	-1183.71484	-901.73230	1396.70715	-1179.94873	-946.37079	1085.11609	-1175.26038	-782.77924	1315.48071	-1173.78247	-745.27142	1147.87805	-1081.74658	-964.27002	1227.90735	-1335.18542	-823.30396	1350.07520	-1401.03333	-870.00598	1154.80225	-1414.18140	-886.82794	1033.01563	-1418.60608	-884.17792	902.42474	-1393.10425	-881.03333	781.94025	-1438.30505	-912.25470	792.64514	-1432.08984	-909.49164	708.31409	-1019.33649	-830.59747	1345.56580	-934.34668	-797.58521	1132.64331	-916.53485	-755.84473	1028.82434	-915.60516	-696.46600	905.89783	-954.38745	-638.21991	826.76672	-909.05505	-662.71210	811.51831	-920.19568	-616.94653	754.25378	-1283.03040	-773.12146	914.18280	-1045.95605	-799.73035	914.13544	-1255.52722	-940.04352	939.72321	-1105.63416	-953.13861	953.47906	-1325.68494	-764.68445	619.14935	-1272.17200	-712.18420	455.09048	-1273.23230	-699.15039	262.30792	-1236.73181	-646.35406	60.24426	-1200.01404	-682.72626	27.23384	-1204.07532	-496.73718	35.91776	-1009.36487	-916.11383	635.12286	-1037.08374	-948.22430	456.81369	-1037.66284	-1068.38708	301.93414	-1086.58423	-1183.36121	116.63711	-1138.45593	-1234.44873	105.94981	-1106.79956	-1066.13403	28.24457																																				 
70	0.690	-1253.24731	-738.16095	1594.08301	-1122.21655	-757.74756	1612.40662	-1261.21655	-861.97369	1539.40149	-1131.24731	-876.79736	1557.56238	-1185.22253	-891.53424	1397.45166	-1180.69250	-935.02600	1085.37512	-1175.87891	-772.50299	1316.44946	-1173.89001	-734.36975	1149.09351	-1083.65393	-954.36127	1228.21448	-1336.24438	-812.07898	1350.47314	-1401.25916	-858.39941	1154.76074	-1414.07410	-875.47223	1032.89124	-1418.19055	-873.81818	902.26837	-1392.05554	-872.57190	781.38092	-1437.99927	-902.89319	792.91730	-1431.03870	-901.58142	708.36230	-1020.12262	-821.19556	1346.19348	-935.94165	-788.70313	1132.76965	-918.25647	-747.48853	1028.58545	-917.66479	-688.56683	905.39398	-956.44733	-630.43109	826.21637	-911.29669	-655.35657	810.85187	-922.49060	-609.66132	753.60443	-1283.31104	-760.87225	915.83643	-1046.48889	-787.98279	914.10785	-1256.41907	-927.89484	940.85516	-1106.25610	-941.33020	953.41907	-1325.96106	-753.50916	620.87231	-1273.66370	-702.61627	456.63281	-1273.81714	-691.38715	263.10907	-1235.39673	-643.44623	60.32021	-1199.54993	-681.11377	28.19121	-1204.84717	-493.30939	34.35712	-1009.52374	-903.33759	634.74707	-1036.09338	-934.33142	456.13971	-1036.91101	-1058.61951	304.06519	-1085.60095	-1178.66577	122.20343	-1137.87000	-1229.43152	113.69505	-1106.72534	-1065.42163	28.17288																																				 
71	0.700	-1254.15674	-728.46503	1595.64697	-1123.19238	-748.29602	1614.07214	-1262.30469	-852.04633	1540.57813	-1132.40259	-867.18842	1558.83374	-1186.68823	-881.26404	1398.78198	-1181.48523	-923.72559	1086.21082	-1176.57678	-762.26721	1318.04443	-1174.34534	-723.35913	1150.84192	-1085.63916	-944.38812	1229.04077	-1337.22717	-800.72400	1351.33252	-1401.59070	-846.47247	1155.22498	-1414.15295	-863.73126	1033.35449	-1417.73364	-862.98553	902.56207	-1391.41638	-862.55548	782.02155	-1437.38928	-893.05292	793.23444	-1429.83630	-892.98743	708.77783	-1021.00116	-811.76666	1347.34509	-937.59296	-779.98669	1133.30847	-920.21411	-739.21295	1028.79346	-919.82953	-681.13898	905.13898	-958.58215	-623.12842	825.87872	-913.68951	-648.47540	810.43243	-924.82904	-603.01855	753.05054	-1283.65308	-748.86536	917.97095	-1047.22388	-776.07898	914.52063	-1257.29236	-915.72192	942.73029	-1106.80847	-929.50037	953.74286	-1327.01611	-743.38995	623.11517	-1273.97437	-692.12933	459.62454	-1274.59521	-684.68549	264.15796	-1234.39063	-643.23090	60.39108	-1199.09888	-681.02863	28.26269	-1204.67822	-492.25543	33.54230	-1009.59619	-889.81555	634.39075	-1035.00964	-919.14990	455.47482	-1036.15015	-1047.78259	306.67117	-1084.65845	-1172.58569	128.33269	-1137.33252	-1222.97375	122.34544	-1106.46667	-1064.52625	28.20230																																				 
72	0.710	-1255.05518	-718.72192	1597.59265	-1124.14844	-738.80963	1616.10400	-1263.39526	-842.16547	1542.27429	-1133.54651	-857.54028	1560.56738	-1188.06775	-870.99939	1400.38562	-1182.02161	-912.62512	1087.65173	-1177.22632	-752.05304	1319.98694	-1174.44055	-712.51843	1152.99280	-1087.37708	-934.33246	1230.19958	-1338.30371	-789.49347	1352.78137	-1402.13440	-834.21759	1156.26038	-1413.97742	-851.74670	1034.05762	-1417.45959	-851.69495	903.27142	-1390.57068	-853.00153	782.56152	-1436.85889	-882.31451	794.39636	-1428.75549	-883.67010	709.72290	-1021.77832	-802.40338	1349.08240	-939.42377	-771.31427	1134.37012	-922.32813	-731.12909	1029.46753	-922.08478	-674.00897	905.26782	-960.63702	-616.43512	825.80591	-916.08759	-642.11578	810.30725	-927.11566	-597.07532	752.87299	-1284.18579	-736.99097	920.79425	-1048.15784	-764.23267	915.39783	-1257.85730	-903.78918	945.36810	-1107.20691	-917.66357	954.59918	-1328.85608	-734.07721	625.69720	-1274.63794	-682.04095	462.38055	-1275.65979	-678.98010	265.52820	-1233.76038	-643.03448	60.79490	-1199.19373	-681.06549	28.24527	-1203.55310	-491.79993	33.10979	-1009.68201	-875.35052	634.10876	-1033.66052	-902.65192	454.89963	-1035.18115	-1035.53088	309.65027	-1083.73975	-1165.16528	135.11955	-1136.79297	-1214.92920	131.88800	-1106.72693	-1063.52502	28.05903																																				 
73	0.720	-1255.85742	-708.96246	1599.70703	-1124.97717	-729.35681	1618.27722	-1264.47327	-832.32556	1544.29089	-1134.64746	-847.98022	1562.61877	-1189.37891	-860.75195	1402.12708	-1182.51758	-901.64215	1089.26538	-1177.92212	-741.82220	1322.24707	-1174.78271	-701.73248	1155.32397	-1088.82019	-924.09717	1231.53662	-1339.17017	-778.19080	1354.58240	-1402.47229	-821.72174	1157.63257	-1414.13110	-839.09351	1035.61572	-1417.02820	-839.77509	904.69446	-1389.82166	-841.68738	784.15527	-1436.23279	-871.03455	795.60699	-1427.69214	-873.60986	711.05798	-1022.73389	-793.02594	1351.26611	-941.24451	-762.79144	1135.87720	-924.69470	-723.24719	1030.61682	-924.36981	-667.29596	905.85083	-962.91663	-610.20264	825.95868	-918.48889	-636.33600	810.61536	-929.35956	-591.75415	752.77991	-1284.69971	-725.57220	923.79999	-1049.23816	-752.44843	916.71924	-1258.06750	-892.08820	948.33765	-1107.42212	-905.81702	955.88141	-1330.49561	-724.68854	628.59540	-1275.20532	-672.86047	465.40067	-1276.84314	-674.21777	266.71881	-1234.13770	-643.21179	61.17231	-1199.56055	-681.09589	28.27217	-1203.66284	-491.35132	32.65188	-1009.75500	-860.32404	633.86932	-1032.00317	-884.73535	454.35638	-1033.90186	-1021.60217	312.69989	-1082.85120	-1156.19873	142.33154	-1136.65369	-1204.88159	141.92097	-1106.66357	-1062.15027	28.15752																																				 
